<?xml version="1.0" encoding="UTF-8" standalone="no"?>
<svg
   width="256px"
   height="289px"
   viewBox="0 0 256 289"
   version="1.1"
   preserveAspectRatio="xMidYMid"
   id="svg6"
   sodipodi:docname="nodejs.svg"
   inkscape:version="1.1.2 (08b2f3d93c, 2022-04-05)"
   xmlns:inkscape="http://www.inkscape.org/namespaces/inkscape"
   xmlns:sodipodi="http://sodipodi.sourceforge.net/DTD/sodipodi-0.dtd"
   xmlns="http://www.w3.org/2000/svg"
   xmlns:svg="http://www.w3.org/2000/svg">
  <defs
     id="defs10" />
  <sodipodi:namedview
     id="namedview8"
     pagecolor="#ffffff"
     bordercolor="#999999"
     borderopacity="1"
     inkscape:pageshadow="0"
     inkscape:pageopacity="0"
     inkscape:pagecheckerboard="0"
     showgrid="false"
     inkscape:zoom="2.4878893"
     inkscape:cx="135.05424"
     inkscape:cy="150.32823"
     inkscape:window-width="1920"
     inkscape:window-height="1015"
     inkscape:window-x="0"
     inkscape:window-y="0"
     inkscape:window-maximized="1"
     inkscape:current-layer="g4" />
  <g
     id="g4">
    <path
       d="m 128,253.37907 c -3.00819,0 -5.81584,-0.80218 -8.42293,-2.20601 L 92.904442,235.32993 c -4.010921,-2.20601 -2.00546,-3.0082 -0.802185,-3.40929 5.414744,-1.80491 6.417474,-2.206 12.032763,-5.41474 0.60164,-0.40109 1.40382,-0.20055 2.00546,0.20055 l 20.4557,12.2333 c 0.80218,0.4011 1.80491,0.4011 2.40655,0 l 80.01787,-46.32613 c 0.80219,-0.40109 1.20328,-1.20328 1.20328,-2.20601 V 97.955886 c 0,-1.002732 -0.40109,-1.804915 -1.20328,-2.206007 l -80.01787,-46.12559 c -0.80218,-0.401092 -1.80491,-0.401092 -2.40655,0 l -80.017875,46.12559 c -0.802183,0.401092 -1.203275,1.403822 -1.203275,2.206007 v 92.451724 c 0,0.80219 0.401092,1.80492 1.203275,2.20601 l 21.85952,12.6344 c 11.832217,6.01638 19.252421,-1.00273 19.252421,-8.02184 v -91.24845 c 0,-1.20328 1.00273,-2.40656 2.406551,-2.40656 h 10.227853 c 1.20327,0 2.40655,1.00273 2.40655,2.40656 v 91.24845 c 0,15.84313 -8.623481,25.06825 -23.664435,25.06825 -4.612558,0 -8.222387,0 -18.450236,-5.01365 L 39.559195,205.24802 c -5.214197,-3.00819 -8.422934,-8.62348 -8.422934,-14.63986 V 98.156431 c 0,-6.01638 3.208737,-11.631671 8.422934,-14.639861 L 119.57707,37.190433 c 5.01365,-2.807643 11.83221,-2.807643 16.84586,0 L 216.4408,83.51657 c 5.2142,3.00819 8.42294,8.623481 8.42294,14.639861 v 92.451729 c 0,6.01638 -3.20874,11.63167 -8.42294,14.63986 l -80.01787,46.32613 c -2.6071,1.20328 -5.61529,1.80492 -8.42293,1.80492 z m 24.66716,-63.5731 c -35.09555,0 -42.31521,-16.04368 -42.31521,-29.68081 0,-1.20328 1.00273,-2.40655 2.40655,-2.40655 h 10.4284 c 1.20327,0 2.206,0.80218 2.206,2.00546 1.60437,10.62894 6.21693,15.84313 27.47481,15.84313 16.84587,0 24.06552,-3.81037 24.06552,-12.83494 0,-5.2142 -2.00546,-9.02457 -28.27699,-11.63167 -21.85952,-2.20601 -35.49665,-7.01912 -35.49665,-24.46662 0,-16.24423 13.63713,-25.87044 36.49938,-25.87044 25.6699,0 38.3043,8.82403 39.90867,28.07645 0,0.60163 -0.20055,1.20327 -0.60164,1.80491 -0.40109,0.40109 -1.00273,0.80218 -1.60437,0.80218 h -10.4284 c -1.00273,0 -2.00546,-0.80218 -2.206,-1.80491 -2.40655,-11.03003 -8.62348,-14.63986 -25.06826,-14.63986 -18.45023,0 -20.65624,6.41747 -20.65624,11.23058 0,5.81583 2.6071,7.62075 27.47481,10.82948 24.66716,3.20874 36.29883,7.8213 36.29883,25.06826 -0.20054,17.64805 -14.63986,27.67535 -40.10921,27.67535 z"
       fill="#539e43"
       id="path2"
       style="stroke-width:0.756748" />
  </g>
</svg>
